<svg width="82" height="80" viewBox="0 0 82 80" fill="none" xmlns="http://www.w3.org/2000/svg">
<path d="M78.9658 11.7871L42.6093 76.9396C41.8587 78.2848 39.9302 78.2927 39.1683 76.9541L2.0909 11.7934C1.26085 10.3346 2.50555 8.56766 4.15502 8.86312L40.5504 15.3827C40.7826 15.4243 41.0203 15.4239 41.2525 15.3815L76.8868 8.87247C78.5307 8.57219 79.7813 10.3255 78.9658 11.7871Z" fill="url(#paint0_linear_68_3292)"/>
<path d="M57.8875 0.311722L30.9826 5.59505C30.5404 5.68188 30.213 6.05745 30.1864 6.50816L28.5313 34.5208C28.4924 35.1806 29.097 35.6926 29.7396 35.5441L37.2303 33.8116C37.9312 33.6497 38.5644 34.2683 38.4204 34.9746L36.1949 45.896C36.0451 46.631 36.7338 47.2596 37.45 47.0415L42.0766 45.6328C42.7939 45.4146 43.4831 46.0449 43.3313 46.7806L39.7946 63.9356C39.5733 65.0087 40.9976 65.5938 41.5916 64.6738L41.9883 64.0594L63.9119 20.2122C64.279 19.4781 63.646 18.6409 62.8414 18.7966L55.1309 20.2879C54.4064 20.4279 53.7899 19.7516 53.9944 19.0412L59.0269 1.55776C59.2316 0.846126 58.6129 0.169302 57.8875 0.311722Z" fill="url(#paint1_linear_68_3292)"/>
<defs>
<linearGradient id="paint0_linear_68_3292" x1="1.18563" y1="6.53466" x2="46.5612" y2="68.0251" gradientUnits="userSpaceOnUse">
<stop stop-color="#41D1FF"/>
<stop offset="1" stop-color="#BD34FE"/>
</linearGradient>
<linearGradient id="paint1_linear_68_3292" x1="38.4615" y1="1.74613" x2="46.6815" y2="58.0125" gradientUnits="userSpaceOnUse">
<stop stop-color="#FFEA83"/>
<stop offset="0.0833333" stop-color="#FFDD35"/>
<stop offset="1" stop-color="#FFA800"/>
</linearGradient>
</defs>
</svg>
