<svg width="16.438" height="65.813" viewBox="0 0 16.438 65.813" xmlns="http://www.w3.org/2000/svg"><g id="svgGroup" stroke-linecap="round" fill-rule="evenodd" font-size="9pt" stroke="#0000" stroke-width="0.25mm" fill="#e12353" style="stroke:#0000;stroke-width:0.25mm;fill:#e12353"><path d="M 7.781 46.594 L 7.781 63.031 L 16.188 63.031 L 16.438 64.469 A 148.676 148.676 0 0 1 11.938 65.149 Q 7.922 65.689 4.969 65.813 A 3.107 3.107 0 0 1 4.598 65.031 Q 4.323 64.202 4.247 62.9 A 18.278 18.278 0 0 1 4.219 61.844 L 4.219 38.094 Q 4.219 35.274 1.793 33.82 A 8.491 8.491 0 0 0 0 33.031 L 0.375 32.125 Q 2.271 31.548 3.153 30.777 A 3.017 3.017 0 0 0 3.375 30.562 A 2.537 2.537 0 0 0 3.864 29.759 Q 4.163 29.007 4.21 27.854 A 10.936 10.936 0 0 0 4.219 27.406 L 4.219 3.969 A 17.333 17.333 0 0 1 4.265 2.647 Q 4.362 1.386 4.661 0.605 A 2.889 2.889 0 0 1 4.969 0 A 49.153 49.153 0 0 1 7.915 0.185 Q 10.974 0.461 15.069 1.118 A 172.381 172.381 0 0 1 16.438 1.344 L 16.188 2.75 L 7.781 2.75 L 7.781 20.344 A 61.961 61.961 0 0 1 7.736 22.784 Q 7.636 25.324 7.311 27.018 A 12.315 12.315 0 0 1 7.062 28.078 A 8.572 8.572 0 0 1 4.35 32.263 A 10.38 10.38 0 0 1 4.219 32.375 L 4.031 32.781 A 11.664 11.664 0 0 1 6.378 36.446 A 14.45 14.45 0 0 1 6.891 37.922 A 17.957 17.957 0 0 1 7.36 40.091 Q 7.781 42.748 7.781 46.594 Z" vector-effect="non-scaling-stroke"/></g></svg>