<svg width="332.5" height="263.25" viewBox="0 0 332.5 263.25" xmlns="http://www.w3.org/2000/svg"><g id="svgGroup" stroke-linecap="round" fill-rule="evenodd" font-size="9pt" stroke="#fff" stroke-width="0.25mm" fill="#fff" style="stroke:#fff;stroke-width:0.25mm;fill:#fff"><path d="M 83.875 209.75 L 160.25 39 A 20.452 20.452 0 0 0 163.01 36.912 Q 165.724 34.513 168.865 30.489 A 85.161 85.161 0 0 0 170 29 L 171.25 29 L 240.125 194.875 A 24.997 24.997 0 0 0 250.859 206.937 A 38.844 38.844 0 0 0 259 210.5 L 259 212.75 A 88.909 88.909 0 0 0 253.753 212.351 Q 248.75 212.11 242.768 212.303 A 190.662 190.662 0 0 0 239.5 212.438 A 209.028 209.028 0 0 0 230.049 213.109 Q 224.297 213.656 219.375 214.5 L 218.375 213.25 Q 220.875 210 219.563 202.375 A 48.491 48.491 0 0 0 218.59 198.07 Q 217.291 193.236 214.706 186.402 A 269.737 269.737 0 0 0 211.875 179.25 L 191.25 127.5 A 1884.818 1884.818 0 0 0 176.491 127.305 Q 149.5 127.057 130.5 127.75 L 101.625 194.875 A 11.734 11.734 0 0 0 100.987 196.602 Q 99.703 201.222 103.563 204.5 A 16.144 16.144 0 0 0 106.717 206.526 Q 111.782 209.093 121.5 211 L 121 213.25 A 493.917 493.917 0 0 0 109.806 212.535 Q 97.566 211.9 88.451 212.144 A 158.504 158.504 0 0 0 85.5 212.25 A 5.071 5.071 0 0 1 85.031 211.7 Q 84.483 210.967 83.875 209.75 Z M 31.125 186.375 L 31.125 252.125 L 64.75 252.125 L 65.75 257.875 A 594.703 594.703 0 0 1 47.753 260.597 Q 39.72 261.677 32.751 262.341 A 243.716 243.716 0 0 1 19.875 263.25 Q 17.462 259.731 16.99 251.601 A 73.112 73.112 0 0 1 16.875 247.375 L 16.875 152.375 Q 16.875 141.095 7.171 135.278 A 33.965 33.965 0 0 0 0 132.125 L 1.5 128.5 A 52.077 52.077 0 0 0 5.929 126.947 Q 10.211 125.207 12.61 123.109 A 12.066 12.066 0 0 0 13.5 122.25 A 10.148 10.148 0 0 0 15.456 119.037 Q 16.65 116.027 16.839 111.415 A 43.742 43.742 0 0 0 16.875 109.625 L 16.875 15.875 A 69.333 69.333 0 0 1 17.061 10.589 Q 17.448 5.546 18.643 2.418 A 11.555 11.555 0 0 1 19.875 0 A 196.614 196.614 0 0 1 31.66 0.74 Q 45.898 2.023 65.75 5.375 L 64.75 11 L 31.125 11 L 31.125 81.375 A 247.846 247.846 0 0 1 30.945 91.137 Q 30.406 104.766 28.25 112.313 A 34.29 34.29 0 0 1 17.401 129.052 A 41.527 41.527 0 0 1 16.875 129.5 L 16.125 131.125 A 46.658 46.658 0 0 1 25.512 145.785 A 57.801 57.801 0 0 1 27.562 151.688 Q 30.781 162.81 31.092 182.143 A 263.121 263.121 0 0 1 31.125 186.375 Z M 266.75 257.875 L 267.75 252.125 L 301.25 252.125 L 301.25 186.375 Q 301.25 165.641 304.363 153.547 A 56.111 56.111 0 0 1 304.875 151.688 A 53.992 53.992 0 0 1 310.204 139.278 A 45.28 45.28 0 0 1 316.375 131.125 L 315.625 129.5 A 35.671 35.671 0 0 1 306.422 117.997 A 34.464 34.464 0 0 1 304.187 112.25 A 55.025 55.025 0 0 1 302.768 105.714 Q 301.606 98.498 301.333 88.064 A 256.773 256.773 0 0 1 301.25 81.375 L 301.25 11 L 267.75 11 L 266.75 5.375 A 596.673 596.673 0 0 1 283.637 2.755 Q 299.113 0.598 310.097 0.096 A 155.072 155.072 0 0 1 312.625 0 Q 315.038 3.519 315.51 11.649 A 73.112 73.112 0 0 1 315.625 15.875 L 315.625 109.625 A 38.15 38.15 0 0 0 315.836 113.789 Q 316.331 118.282 317.989 120.924 A 8.807 8.807 0 0 0 319 122.25 Q 322.049 125.525 329.384 127.984 A 60.576 60.576 0 0 0 331 128.5 L 332.5 132.125 Q 321.308 135.69 317.539 143.434 A 20.174 20.174 0 0 0 315.625 152.375 L 315.625 247.375 A 69.333 69.333 0 0 1 315.439 252.661 Q 315.052 257.704 313.857 260.832 A 11.555 11.555 0 0 1 312.625 263.25 Q 300.531 262.746 283.98 260.493 A 600.227 600.227 0 0 1 266.75 257.875 Z M 162 55.125 L 133.875 120.375 A 572.755 572.755 0 0 0 141.305 120.527 Q 155.414 120.732 177.275 120.507 A 3085.119 3085.119 0 0 0 188.125 120.375 L 162 55.125 Z" vector-effect="non-scaling-stroke"/></g></svg>