<svg xmlns="http://www.w3.org/2000/svg" xmlns:xlink="http://www.w3.org/1999/xlink" viewBox="0 0 85 85" fill="#fff" fill-rule="evenodd" stroke="#000" stroke-linecap="round" stroke-linejoin="round"><use xlink:href="#A" x="2.5" y="2.5"/><symbol id="A" overflow="visible"><g stroke="none"><path d="M17.96 59.32L57.5 72.5l10-5L65 80H35L22.5 67.5q-3.483-3.483-4.54-8.18z" fill="#109484"/><path d="M17.5 17.5V55q0 2.275.46 4.32L57.5 72.5l10-5z" fill="#00d3a9"/><path d="M59.32 17.96L72.5 57.5l-5 10L80 65V35L67.5 22.5q-3.483-3.483-8.18-4.54z" fill="#0098e0"/><path d="M17.5 17.5H55q2.275 0 4.32.46L72.5 57.5l-5 10z" fill="#0072be"/><path d="M17.5 17.5H55q2.275 0 4.32.46L57.5 12.5l-11-11q-2.75-3-6.5 0z" fill="#00d3a9"/><path d="M17.5 17.5L1.5 40q-3 3.75 0 6.5l11 11 5.46 1.82q-.46-2.045-.46-4.32z" fill="#0072be"/></g></symbol></svg>