<svg xmlns="http://www.w3.org/2000/svg" viewBox="0 0 218.3 229.53"><defs><style>.cls-1{isolation:isolate;}.cls-2{fill:#eee;mix-blend-mode:multiply;opacity:0.5;}</style></defs><g class="cls-1"><g id="Layer_2" data-name="Layer 2"><g id="OBJECTS"><path class="cls-2" d="M189.66,114.76,218.3,79.3l-44-11.86,2.32-45.52L134,38.19,109.15,0,84.27,38.19,41.69,21.92,44,67.44,0,79.3l28.63,35.46L0,150.23l44,11.86-2.32,45.52,42.58-16.27,24.88,38.19L134,191.34l42.57,16.27-2.32-45.52,44-11.86ZM207.3,82.87,198,95l-14.58-4.33,9.25-12.08ZM172.82,72.64l15.79,4.68L176.75,92.8l18.69,5.55-10,13.07-12.6-17.34Zm0,28.24,7.58,10.44-7.58-2.09Zm0,12.5,5,1.38-5,1.39Zm0,6.92,7.58-2.09-7.58,10.44Zm-17.36-84,14.35-5.07-.39,15.21-14.34,5.07Zm-4,1.43-.5,19.49,18.38-6.5-.42,16.47L148.5,60.6,135.9,43.26Zm6,118.9,7.36,2.77-12.27,4Zm-10.15,7.15-10.95-15.07,17.21,6.46Zm-9.85-37.77-9,2.68.33,12.89-3.46-1.3.14.18-8.89-3.14L109.18,148l-2-3.08v.23l-5.35-7.77-12.15,4.3.17-3.69-.14.18.24-9.42-9-2.68.22-.07-3.57-1,7.84-10.24-5.73-7.48.22.07-2.3-2.88,12.35-3.67-.24-9.42.14.18-.17-3.69,12.15,4.29,5.35-7.76v.23l2-3.08,7.31,10.61,12.15-4.29-.16,3.69.13-.18-.24,9.42,9,2.68-.22.07,3.56,1-7.84,10.23L140.75,125l-3.56,1Zm-26.26,50.81V158.22h0l10.12,15.35-10.12,3.29Zm12.41.17,4.33,6.57-12.27-4Zm-12-25.45,6.49-9.42L128.84,146,130,170.75l-4.74,1.54ZM94.74,177l7.94,2.58-12.27,4Zm-1.66-4.74-4.74-1.54L89.46,146l10.79-3.81,6.49,9.42ZM97,173.57l10.13-15.35v18.64ZM65.8,163.42l-12.28-4,7.37-2.77Zm-1-8.21L82,148.75,71,163.82Zm-11.21-.06,3.26-4.08,1.63,2.24Zm-4.09-1.29V141l4.91,6.75Zm7.5-9.39-6.26-8.61,17.72-5.76Zm-7.5-12.42V121.41l17.73,4.88Zm0-14.79v-5l23.91-6.59,7,9.08-7,9.09Zm11.42-44.4-7.36-2.77,12.27-4ZM71,65.7,82,80.78,64.77,74.32ZM56.82,78.46l-3.26-4.08,4.89,1.84Zm11.61,21L50.71,93.67,57,85.06ZM54.38,81.82l-4.91,6.75V75.67ZM67.2,103.24l-17.73,4.88V97.48ZM94.74,52.5l-4.33-6.57,12.27,4Zm12.41.17V71.31L97,56ZM106.74,78l-6.49,9.42L89.46,83.56,88.34,58.78l4.74-1.54ZM123.56,52.5l-7.94-2.58,12.27-4Zm1.66,4.74L130,58.78l-1.12,24.78-10.79,3.81-6.49-9.43Zm-4-1.28L111.15,71.31V52.67ZM138,114.76l7-9.08,23.91,6.59v5l-23.91,6.59ZM152.5,66.11l12.27,4-7.36,2.77Zm1,8.21-17.21,6.46L147.26,65.7Zm15.3,14.25-4.9-6.75,4.9-6.15Zm0,8.91v10.64l-17.72-4.88Zm-4.08-23.1-3.26,4.08-1.64-2.24Zm-3.41,10.68,6.26,8.61-17.73,5.76Zm7.49,36.34v10.65l-17.72-5.76Zm-1.23,14.45-6.26,8.62L149.86,130.1Zm-6.11,15.22,3.25,4.08-4.89-1.84Zm2.44-3.36,4.9-6.75v12.9ZM134.44,48.06,142,58.5l-7.94-2.58Zm-.54,12L144,63.35l-11,15.08Zm-1.16,26.33L156,77.67l2.93,4-15.47,19.38-11-3.25Zm-2.6-31.75-2.64-.86,2.88-4.36Zm-21-43.07,8.62,12.53-8.62,12.53L100.52,24.1ZM98.09,27.62l11.06,16.06,11-16.06,9.34,13.57-20.39,6.62L88.76,41.19Zm-7.3,26.16-2.64.86-.23-5.22ZM85.85,97.84l-11,3.25L59.41,81.7l2.92-4,23.22,8.72ZM84.39,60.06l.83,18.37-11-15.08Zm-.18-4.14L76.27,58.5l7.58-10.44ZM82.4,43.26,69.8,60.6,49.41,67.23,49,50.76l18.38,6.5-.5-19.49ZM11,82.87l14.58-4.33,9.25,12.08L20.25,95Zm0,63.78,9.25-12.07,14.58,4.33L25.58,151Zm34.47,10.24L29.69,152.2l11.85-15.47-18.68-5.55,10-13.07,12.6,17.34Zm0-28.24-7.58-10.44,7.58,2.09Zm0-12.5-5-1.39,5-1.38Zm0-6.92-7.58,2.09,7.58-10.44Zm0-15.15-12.6,17.34-10-13.07L41.54,92.8,29.69,77.32l15.78-4.68ZM62.83,36.34l.39,15.21L48.88,46.48l-.39-15.21Zm0,156.85-14.34,5.06.39-15.2L63.22,178Zm4-1.43.5-19.49L49,178.77l.42-16.47,20.39,6.63,12.6,17.34Zm17-10.29L76.27,171l7.94,2.58Zm.54-12-10.12-3.29,11-15.08Zm1.16-26.33-23.21,8.72-2.93-4,15.47-19.38,11,3.25Zm2.6,31.75,2.64.86-2.87,4.36Zm21,43.07-8.63-12.53,8.63-12.53,8.62,12.53Zm11-16.05-11-16.06L98.09,201.91l-9.33-13.57,20.39-6.62,20.39,6.62Zm7.3-26.16,2.64-.86.24,5.22Zm4.95-44.06,11-3.25,15.47,19.38-2.93,4-23.22-8.73Zm1.45,37.78-.83-18.37,11,15.08Zm.19,4.14L142,171l-7.59,10.44Zm1.81,12.66,12.6-17.34,20.39-6.63.42,16.47-18.38-6.5.5,19.49Zm19.56,6.92L155.08,178l14.34,5.07.39,15.2Zm17.36-36.3V135.45l12.6-17.34,10,13.07-18.69,5.55,11.86,15.47Zm10.64-18L198,134.58l9.26,12.08L192.71,151Z"/></g></g></g></svg>